<svg id="visual" viewBox="0 0 120 50" width="120" height="50" xmlns="http://www.w3.org/2000/svg" xmlns:xlink="http://www.w3.org/1999/xlink" version="1.1"><path d="M0 6L20 5L40 5L60 6L80 6L100 6L120 6L120 0L100 0L80 0L60 0L40 0L20 0L0 0Z" fill="#dddddd"></path><path d="M0 11L20 11L40 11L60 12L80 12L100 12L120 12L120 4L100 4L80 4L60 4L40 3L20 3L0 4Z" fill="#c1c4e6"></path><path d="M0 13L20 13L40 13L60 14L80 14L100 14L120 14L120 10L100 10L80 10L60 10L40 9L20 9L0 9Z" fill="#a1adee"></path><path d="M0 17L20 17L40 17L60 18L80 17L100 18L120 18L120 12L100 12L80 12L60 12L40 11L20 11L0 11Z" fill="#7b96f5"></path><path d="M0 27L20 27L40 28L60 27L80 27L100 28L120 28L120 16L100 16L80 15L60 16L40 15L20 15L0 15Z" fill="#417ffc"></path><path d="M0 29L20 29L40 30L60 29L80 29L100 30L120 30L120 26L100 26L80 25L60 25L40 26L20 25L0 25Z" fill="#0077ff"></path><path d="M0 39L20 39L40 39L60 39L80 39L100 40L120 39L120 28L100 28L80 27L60 27L40 28L20 27L0 27Z" fill="#0077ff"></path><path d="M0 41L20 41L40 41L60 41L80 41L100 42L120 41L120 37L100 38L80 37L60 37L40 37L20 37L0 37Z" fill="#417ffc"></path><path d="M0 43L20 43L40 43L60 43L80 43L100 44L120 43L120 39L100 40L80 39L60 39L40 39L20 39L0 39Z" fill="#7b96f5"></path><path d="M0 46L20 46L40 46L60 46L80 46L100 47L120 46L120 41L100 42L80 41L60 41L40 41L20 41L0 41Z" fill="#a1adee"></path><path d="M0 49L20 49L40 49L60 49L80 49L100 49L120 49L120 44L100 45L80 44L60 44L40 44L20 44L0 44Z" fill="#c1c4e6"></path><path d="M0 51L20 51L40 51L60 51L80 51L100 51L120 51L120 47L100 47L80 47L60 47L40 47L20 47L0 47Z" fill="#dddddd"></path></svg>