<svg xmlns="http://www.w3.org/2000/svg" viewBox="0 0 500 500"><g id="freepik--Plants--inject-60"><g id="freepik--plants--inject-60"><path d="M22.41,375a6.39,6.39,0,0,0-2.32-6.44c-2.57-2.14-6-3-6.38-2.81s0,3.76,2.68,6.62A7.53,7.53,0,0,0,22.41,375Z" style="fill:#5DA5FF"></path><path d="M23.93,383.1a6.41,6.41,0,0,0-5-4.67c-3.26-.74-6.76.06-7,.4s1.72,3.34,5.41,4.67A7.59,7.59,0,0,0,23.93,383.1Z" style="fill:#5DA5FF"></path><path d="M30.19,384.33a6.41,6.41,0,0,0,3.75-5.73c.16-3.33-.93-6.42-1.3-6.56s-3.33,2.48-4.18,5.89C27.54,381.65,29.66,383.53,30.19,384.33Z" style="fill:#5DA5FF"></path><path d="M33.8,412.49a26.09,26.09,0,0,0,.22-9,50.21,50.21,0,0,0-1.57-8.23,65.1,65.1,0,0,0-6.83-16,34.87,34.87,0,0,0-6.87-8.9c-.06-.05-.22.07-.17.13a52.28,52.28,0,0,1,5.64,8.5,60.36,60.36,0,0,1,4.05,8.17,63.54,63.54,0,0,1,3.94,15,87.46,87.46,0,0,1,.47,10.23A.56.56,0,0,0,33.8,412.49Z" style="fill:#37474f"></path><path d="M29.53,387a20.69,20.69,0,0,0,1.61-4.24,11.4,11.4,0,0,0,.43-4.3c0-.2-.18.06-.2.19a32.67,32.67,0,0,1-.91,3.76,14.52,14.52,0,0,1-1.76,3.71.92.92,0,0,0,.06,1.05A.48.48,0,0,0,29.53,387Z" style="fill:#37474f"></path><path d="M29.2,386.5a16.65,16.65,0,0,0-5-3.85,19.59,19.59,0,0,0-2.62-1.24,11.52,11.52,0,0,0-3.34-.78c-.05,0-.32.1-.23.12a32.07,32.07,0,0,1,3.14,1.18,18.36,18.36,0,0,1,2.71,1.44,27.35,27.35,0,0,1,4.79,3.77C29,387.43,29.43,386.78,29.2,386.5Z" style="fill:#37474f"></path><path d="M28.54,394.58A6.42,6.42,0,0,0,24.61,389c-3-1.4-6.62-1.35-6.9-1.05s1,3.62,4.32,5.68A7.56,7.56,0,0,0,28.54,394.58Z" style="fill:#5DA5FF"></path><path d="M33,399a16.46,16.46,0,0,0-4.09-4.8,17.17,17.17,0,0,0-2.31-1.76,11.15,11.15,0,0,0-3.1-1.46c-.05,0-.33,0-.25.07a31.1,31.1,0,0,1,2.83,1.81,17.92,17.92,0,0,1,2.34,2,27.18,27.18,0,0,1,3.9,4.68C32.54,399.86,33.15,399.33,33,399Z" style="fill:#37474f"></path></g><g id="freepik--plants--inject-60"><path d="M43.85,359.55a6.93,6.93,0,0,1,1.23-7.32c2.33-2.79,5.87-4.4,6.28-4.24s.72,4-1.58,7.58A8.16,8.16,0,0,1,43.85,359.55Z" style="fill:#5DA5FF"></path><path d="M43.81,368.55a7,7,0,0,1,4.45-6c3.35-1.41,7.24-1.23,7.52-.91s-1.19,3.9-4.87,6A8.17,8.17,0,0,1,43.81,368.55Z" style="fill:#5DA5FF"></path><path d="M37.35,371.08a7,7,0,0,1-5.12-5.4c-.82-3.53-.25-7,.12-7.26s4,2,5.61,5.49C39.67,367.7,37.77,370.12,37.35,371.08Z" style="fill:#5DA5FF"></path><path d="M39,401.87a28.39,28.39,0,0,1-2-9.57,55.19,55.19,0,0,1,.08-9.09,71.12,71.12,0,0,1,4.19-18.44c1.4-3.76,3-7.71,5.61-10.84.06-.06.25,0,.21.11a55.75,55.75,0,0,0-4.37,10.17A65.08,65.08,0,0,0,40,373.72a68.5,68.5,0,0,0-1.31,16.76,95.46,95.46,0,0,0,1.48,11A.61.61,0,0,1,39,401.87Z" style="fill:#37474f"></path><path d="M38.57,373.76A22.31,22.31,0,0,1,36,369.54a12.37,12.37,0,0,1-1.3-4.51c0-.22.2,0,.25.16a36.6,36.6,0,0,0,1.7,3.85,16.6,16.6,0,0,0,2.6,3.63,1,1,0,0,1,.15,1.12A.52.52,0,0,1,38.57,373.76Z" style="fill:#37474f"></path><path d="M38.84,373.21a17.82,17.82,0,0,1,4.6-5.08A21,21,0,0,1,46,366.29a12.54,12.54,0,0,1,3.42-1.47s.36,0,.27.08a34.87,34.87,0,0,0-3.13,1.87A19,19,0,0,0,44,368.83a29.53,29.53,0,0,0-4.4,4.95C39.28,374.16,38.64,373.55,38.84,373.21Z" style="fill:#37474f"></path><path d="M41.11,381.71A6.94,6.94,0,0,1,44.22,375c3-2.08,6.81-2.72,7.16-2.46s-.35,4.06-3.5,6.91A8.17,8.17,0,0,1,41.11,381.71Z" style="fill:#5DA5FF"></path><path d="M37.22,387.3a18,18,0,0,1,3.44-5.93,20.25,20.25,0,0,1,2.12-2.32,12.43,12.43,0,0,1,3-2.16s.35,0,.28,0a32.17,32.17,0,0,0-2.67,2.48A18.6,18.6,0,0,0,41.3,382,29.63,29.63,0,0,0,38,387.71C37.86,388.13,37.1,387.68,37.22,387.3Z" style="fill:#37474f"></path></g><g id="freepik--plants--inject-60"><path d="M485.22,376.72a6.12,6.12,0,0,1,3.21-5.71c2.76-1.62,6.18-1.9,6.47-1.65s-.6,3.54-3.57,5.82A7.2,7.2,0,0,1,485.22,376.72Z" style="fill:#5DA5FF"></path><path d="M482.51,384.18a6.14,6.14,0,0,1,5.47-3.62c3.2-.19,6.37,1.12,6.51,1.48s-2.15,2.88-5.84,3.55A7.21,7.21,0,0,1,482.51,384.18Z" style="fill:#5DA5FF"></path><path d="M476.4,384.36a6.13,6.13,0,0,1-2.64-6c.37-3.18,1.88-5.92,2.26-6s2.76,2.88,3,6.23C479.32,382.24,477,383.68,476.4,384.36Z" style="fill:#5DA5FF"></path><path d="M468.55,410.39a25.28,25.28,0,0,1,1.21-8.53,47.76,47.76,0,0,1,2.78-7.52,62.75,62.75,0,0,1,9-14.06A33.46,33.46,0,0,1,489.4,373c.07,0,.2.09.14.14a49.82,49.82,0,0,0-6.66,7.14,58.12,58.12,0,0,0-5.11,7.09,60.71,60.71,0,0,0-6.08,13.52,84.62,84.62,0,0,0-2.06,9.58A.54.54,0,0,1,468.55,410.39Z" style="fill:#37474f"></path><path d="M476.61,387a19.5,19.5,0,0,1-.85-4.26,10.83,10.83,0,0,1,.26-4.13c.06-.19.16.08.16.21a32.88,32.88,0,0,0,.27,3.7,14,14,0,0,0,1.08,3.78.88.88,0,0,1-.22,1A.47.47,0,0,1,476.61,387Z" style="fill:#37474f"></path><path d="M477,386.56a16,16,0,0,1,5.34-2.84A16.58,16.58,0,0,1,485,383a10.72,10.72,0,0,1,3.28-.21s.28.14.2.15a27.48,27.48,0,0,0-3.16.62,16.74,16.74,0,0,0-2.78.93,26.55,26.55,0,0,0-5.12,2.8C477.08,387.49,476.73,386.8,477,386.56Z" style="fill:#37474f"></path><path d="M476.35,394.3a6.12,6.12,0,0,1,4.59-4.68c3.09-.85,6.47-.23,6.68.09s-1.5,3.26-5,4.69A7.2,7.2,0,0,1,476.35,394.3Z" style="fill:#5DA5FF"></path><path d="M471.45,397.78a16,16,0,0,1,4.63-3.9,17.9,17.9,0,0,1,2.45-1.3,11,11,0,0,1,3.16-.88c.05,0,.3.08.23.1a28.65,28.65,0,0,0-3,1.27,15.82,15.82,0,0,0-2.52,1.49,26.07,26.07,0,0,0-4.43,3.8C471.73,398.66,471.24,398.06,471.45,397.78Z" style="fill:#37474f"></path></g><g id="freepik--plants--inject-60"><path d="M467.4,358.81a6.68,6.68,0,0,0,0-7.12c-1.76-3-4.86-5.07-5.27-5s-1.31,3.67.3,7.41A7.84,7.84,0,0,0,467.4,358.81Z" style="fill:#5DA5FF"></path><path d="M466,367.31a6.67,6.67,0,0,0-3.27-6.33c-2.94-1.86-6.64-2.3-7-2s.51,3.87,3.65,6.46A7.82,7.82,0,0,0,466,367.31Z" style="fill:#5DA5FF"></path><path d="M471.72,370.72a6.7,6.7,0,0,0,5.68-4.3c1.33-3.21,1.35-6.61,1-6.88s-4.13,1.27-6.16,4.31C470.06,367.16,471.48,369.74,471.72,370.72Z" style="fill:#5DA5FF"></path><path d="M465.36,399.55a27.13,27.13,0,0,0,3.37-8.73,53.1,53.1,0,0,0,1.36-8.6A68.11,68.11,0,0,0,469,364.14c-.74-3.77-1.67-7.76-3.6-11.12,0-.07-.24,0-.21.07a53.85,53.85,0,0,1,2.53,10.29,62.4,62.4,0,0,1,1.09,9.42,65.63,65.63,0,0,1-1.4,16A92.74,92.74,0,0,1,464.31,399,.59.59,0,0,0,465.36,399.55Z" style="fill:#37474f"></path><path d="M470.14,373.06a21,21,0,0,0,3.07-3.59,11.89,11.89,0,0,0,1.94-4.06c.05-.2-.2,0-.27.12a34.85,34.85,0,0,1-2.21,3.37,14.9,14.9,0,0,1-3,3,1,1,0,0,0-.31,1A.5.5,0,0,0,470.14,373.06Z" style="fill:#37474f"></path><path d="M470,372.49a17.35,17.35,0,0,0-3.55-5.52,19.47,19.47,0,0,0-2.13-2.13,11.92,11.92,0,0,0-3-1.94s-.34,0-.27,0a30.22,30.22,0,0,1,2.67,2.26,18,18,0,0,1,2.14,2.35,28.35,28.35,0,0,1,3.37,5.37C469.41,373.32,470.11,372.85,470,372.49Z" style="fill:#37474f"></path><path d="M466.5,380.17a6.67,6.67,0,0,0-1.88-6.87c-2.48-2.44-6-3.64-6.38-3.45s-.31,3.89,2.23,7.08A7.86,7.86,0,0,0,466.5,380.17Z" style="fill:#5DA5FF"></path><path d="M469.29,386.06a17,17,0,0,0-2.32-6.14,19.14,19.14,0,0,0-1.63-2.53,12.2,12.2,0,0,0-2.53-2.52c-.05,0-.33-.08-.27,0a33.06,33.06,0,0,1,2.13,2.77,17.14,17.14,0,0,1,1.6,2.75,28.4,28.4,0,0,1,2.18,5.94C468.56,386.74,469.34,386.43,469.29,386.06Z" style="fill:#37474f"></path></g></g><g id="freepik--Shadows--inject-60"><ellipse id="freepik--Shadow--inject-60" cx="255.57" cy="427.64" rx="69.98" ry="40.4" style="fill:#e0e0e0"></ellipse><ellipse id="freepik--shadow--inject-60" cx="410.84" cy="418.7" rx="69.98" ry="40.4" style="fill:#e0e0e0"></ellipse><ellipse id="freepik--shadow--inject-60" cx="96.6" cy="419.9" rx="69.98" ry="40.4" style="fill:#e0e0e0"></ellipse></g><g id="freepik--character-3--inject-60"><g id="freepik--Character--inject-60"><g id="freepik--Bottom--inject-60"><path d="M439.79,432.38c.45,4.42,1.21,7.46,2.95,10s4.84,3.23,7.93,2.34a11.79,11.79,0,0,0,7.74-6.95c1.16-3.11,1.15-6.5.27-10.59Z" style="fill:#263238"></path><path d="M452.46,402.93c.72,2.95,1.08,5,2.05,9,1.52,6.27,3.14,8.92,4.07,14.13,1.05,6,.44,8.85-1.9,12.38S447.1,446,443.1,441c-3.27-4.1-3.59-8.78-3.55-14.77a129,129,0,0,0-1-15.13V411c-.16-1.6-.41-4.76-.65-6.35-.52-3.5,1.88-3.89,2.81-4.4a13.74,13.74,0,0,1,4.16-1.5,12.53,12.53,0,0,1,4.48.2C451,399.26,451.78,400.11,452.46,402.93Z" style="fill:#37474f"></path><path d="M353.35,413.77c-.28,0-.61,3,.94,4.19,1.79,1.4,7,3.63,13.73,2.58s10.35-3.18,13-5.45,6.35-5.47,9.39-6.22c2.83-.69,6.53-2.24,7.42-3.11s.65-4.65.65-4.65Z" style="fill:#263238"></path><path d="M395.27,389a1.79,1.79,0,0,1,.91.21c.74.41.91,1.39,1,2.25a9.24,9.24,0,0,0,.33,2.22c.88,2.29,1.47,6.34.88,8.76-.47,1.92-5.57,3.64-8.5,4.82a38.28,38.28,0,0,0-9.43,6.14,28.63,28.63,0,0,1-14.14,5.57c-6.73.3-11.15-1.33-12.56-3.63-1.76-2.84-.5-4.55,7.14-8.24,1.45-.7,6.51-3.8,8.23-4.92a39.53,39.53,0,0,0,5.16-3.94,26.49,26.49,0,0,0,2.29-2.33,33,33,0,0,1,3.72-3.26,19.92,19.92,0,0,1,2.89-2.13,12.88,12.88,0,0,1,5.5-1.53c2-.13,3.81.26,5.77.06C394.73,389,395,389,395.27,389Z" style="fill:#37474f"></path><path d="M451.67,401.38c-1.5-12.91-.46-27.21-2.4-47.39h0c-.31-5.18-.73-10.72-1.29-15.64-1.89-16.55-4.78-22.11-5.15-25.31,0,0-.18-32.58-2.78-68.85-1.22-17.06-6.56-22-11-30.93l-50.8,2c-4.54,22.59-3.5,73.59-2.4,96.64.56,11.75,3.63,53.94,3.79,73.07.05,5.61-1.08,7.63-3.08,9.88-4.19,4.69-9.56,8-14.69,11.71-1.41,3.08,5.75,4.86,11.72,1.58a142.9,142.9,0,0,0,12.58-7.49c4.37-3.4,9.08-5.69,10-10.5.35-2,9.53-46.85,9.71-56.64.15-8.41-1.49-22.61-1.49-22.61l4.17-35.79s5.59,27.26,8.92,41.67,7,31.5,10.79,45.75h0C432,379,437,394.88,438.15,403.14c.31,2,3.43,21.3,4.57,25.71s11.2,4.12,11.53-3.56C454.47,420.18,452,403.81,451.67,401.38Z" style="fill:#ffa8a7"></path><path d="M430.45,213.57c6.19,9.93,10.81,18.05,12.62,48.23S444.72,310.32,445,314s2.2,6.29,4.86,24.15,1.36,39.61,1.36,39.61-1.71,3.33-8.8,4.23c-6.54.84-9.88-1.41-9.88-1.41s-8.9-33.09-11.82-45.38c-2.58-10.79-11.8-52.61-11.8-52.61l-3.12,29s2.68,10.56.56,26.4-5.64,31.38-5.64,31.38-3.27,1.12-10.2,1.32a36.54,36.54,0,0,1-11.85-2.19s-3.35-45.62-4.08-63.45-2.14-67.37,3.49-88.95Z" style="fill:#455a64"></path><path d="M438.55,314.11s-3.75-3.49-10.65-2.4-9.57,5.14-9.57,5.14C425.63,313.32,438.55,314.11,438.55,314.11ZM422.36,318c4.11.62,8.21.8,17.08-1.26C435.16,315.89,422.36,318,422.36,318Z" style="fill:#ffa8a7"></path><path d="M374.7,307.67c0,.63.06,1.28.1,1.95a90.4,90.4,0,0,1,17.64-.11C389.88,308.22,380.67,306.79,374.7,307.67Z" style="fill:#ffa8a7"></path><path d="M374.93,312.15c0,.59.06,1.19.1,1.81,1.4-.14,9.64-.94,13.26-2C382.26,311.71,376.27,312.06,374.93,312.15Z" style="fill:#ffa8a7"></path><path d="M443.17,320.15c-2.15-8.27-2.19-24.18-2.72-38-.16-4.18-.33-8.49-.56-13.08-.89-18-3.15-38.06-13.11-50.67L426,219c6.7,8.47,9.86,20.44,11.47,32.87-9.41-.82-11.82-9.65-15.11-21.82q-.67-2.49-1.42-5.15l-.89.24c.5,1.76,1,3.48,1.41,5.14,3.28,12.14,5.89,21.76,16.13,22.51.68,5.48,1.07,11,1.34,16.38.22,4.58.39,8.89.55,13.06.54,13.87.57,29.82,2.75,38.18.24.94.5,1.91.77,2.94,2.87,10.68,6.21,28.5,5.55,56.74a8.72,8.72,0,0,0,1-.61c.58-28-2.74-45.7-5.6-56.36C443.67,322.06,443.41,321.08,443.17,320.15Z" style="fill:#37474f"></path><path d="M408.91,282.55l-7.25-34.05s-12.4-.35-19.55-7c1.54,5.88,11.57,10.48,16.07,11.33l1.37,6c-.09,3.22-.19,6.6-.29,10.09-.58,19.24-1,39.09,0,43.56,2,8.68,1.44,17,.31,28.38-1,10.24-2.77,22.93-3.87,29.42l.93-.12c1.11-6.43,2.56-17.74,4-29.25s1.82-19.55-.46-28.66c-1.09-4.32-.54-25,0-43.31q.1-3.31.2-6.5l4.84,21.1.57,28Z" style="fill:#37474f"></path></g><g id="freepik--Top--inject-60"><g id="freepik--Arm--inject-60"><path d="M305.16,150.62a5.18,5.18,0,0,1,3.07,0,33.39,33.39,0,0,1,4.57,2c2.34,1,6.11,2.67,8.68,2.32.52-.07,1.59-.37.81-1a22,22,0,0,1-3-2.39,4.58,4.58,0,0,1-1.38-3.42,1.59,1.59,0,0,1,.44-1c.41-.36.72-.18,1.09,0a9.87,9.87,0,0,0,1.22.6c.85.38,1.7.77,2.54,1.17,4.94,2.32,9.92,5.1,13.13,9.66.46.66,3.38,5.94,5.23,8.9,1.53,2.71,10.75,16.43,10.75,16.43s12.53-11.19,18.14-16.3c6-5.48,9.86-9.31,19.11-9.74l-8.9,29.41S364.42,199.78,361.22,202c-8.06,5.63-9.77,7.45-15,3.17-6.37-5.25-8.21-11.68-11-18.61-3.15-7.81-4.22-11.59-5.83-13.89s-3.89-2.26-5.54-2.62a25.06,25.06,0,0,1-6.56-2.18,23.34,23.34,0,0,1-5.17-3.14,7.11,7.11,0,0,1-2.08-2.08,19,19,0,0,0-.67-2.36c-.46-.84-1.31-1.44-1.67-2.32a8.73,8.73,0,0,1-.35-2.23,3.83,3.83,0,0,0-1.86-2.5,3.61,3.61,0,0,1-1.16-1.14C304,151.32,304.5,150.87,305.16,150.62Z" style="fill:#ffa8a7"></path><path d="M352.36,184c3.67,5.19,4,10.33,3.68,12.37a16.15,16.15,0,0,0-1.75-14.09Z" style="fill:#f28f8f"></path><path d="M324.33,156.89a16.73,16.73,0,0,0,6.41,6.73,6.91,6.91,0,0,1-4.48-1.8A6.47,6.47,0,0,1,324.33,156.89Z" style="fill:#f28f8f"></path></g><g id="freepik--Hair--inject-60"><path d="M400.67,139.12c-.76-1.74-1.39-3.69-2.68-5.14s-3-2.25-4.54-3.36L388.6,127c-5.9-3.85-7.59-12.48-5.39-16.38,5.09-9,17-11.29,23.25-11.09,11.94.37,17.48,3.94,18.18,10.2,3.66.32,5.62,2.22,7.34,5,1.4,2.25,1.72,4,1.35,10.68a14,14,0,0,0,.56,4.74c.73,2.13,2.43,4.33,3,6.5a10.23,10.23,0,0,1,0,6.82,9,9,0,0,1-5.07,5.16,6.49,6.49,0,0,0,0-5.45c-.43,2.39-1.13,5.13-3.34,6.12s-4.94-.4-7.39,0c-1.6.28-3,1.33-4.57,1.63-.76.15-2.76.26-3.22-.57s.45-2.12,0-3.1c-.56-1.27-3.46-2-4.73-2.6C406.2,143.48,401.84,141.8,400.67,139.12Z" style="fill:#37474f"></path><path d="M402.45,114.32c-.45-5.75-6.82-11.61-14.32-8.06a11.51,11.51,0,0,0-6.52,9.29,14.68,14.68,0,0,0,.38,5.32c.56,2.11,2,3.5.62,5.73-.77,1.22-1.93,2.13-2.77,3.29a7.89,7.89,0,0,0,1.71,10.62,5.79,5.79,0,0,1,2.27-6.57c-1.32,2.28-1.07,5.64-.53,7.38a16.51,16.51,0,0,0,12.16,10.73c3,.55,9.52-.1,10.29-3.8.34-1.68-.25-4.07-.38-5.78-.15-2.05-.33-4.09-.51-6.13-.61-6.68-1.34-13.35-2.15-20C402.62,115.66,402.54,115,402.45,114.32Z" style="fill:#263238"></path></g><path d="M438.48,229c-3.63-11.2-7.33-16.52-6.72-21.75.94-8,4.21-18.16,4.44-23.72.81-19.75-3-21.73-6.52-23.25,0,0-6.33-1.37-9.79-2.19-2.09-.5-6.24-1.07-6.24-1.07-3.2-.1-9.68,0-12.32.26a33.2,33.2,0,0,1-3.63,0l-8.09.57a83.77,83.77,0,0,0-12.13,13.27c-6.16,8.34-8.52,18.28.4,25.68,0,0,.42,7.79.34,11.28-.36,5-2,14-2.82,24.36C389.11,245.18,423.07,242.2,438.48,229Z" style="fill:#5DA5FF"></path><g id="freepik--Head--inject-60"><path d="M417.81,154.17c.07-2,.8-11.8.8-11.8.05.74,3.53,2.9,6.89-.74s3.15-9.17.87-11.42c-3.53-3.48-8.82-.66-9.57,4.12-2.8,1.4-3.68-2.05-1.77-5.91-.14-3.17-3.41-3.69-3-10.59-.28-3.44-5.45-6-9.58-3.51-2.58-3.27-9.17-3.76-12.15,1.56-1.92,4-2.5,4.05-2.15,9.07.12,1.77-1.38,3.9-1.58,6.25-.9,10.42,1.83,15.46,5.1,17.37,2.18,1.28,4.08,1.8,8,1.91l-.33,3.27h0c-.15,1.64,0,3.13-1.65,3.59-.72,1-2.54,8.58,3.06,13.84,10.72-2.31,19.22-11.26,20-12.84C418.13,157.39,417.74,156.13,417.81,154.17Z" style="fill:#ffa8a7"></path><path d="M401.44,138.92,396,140.15a2.74,2.74,0,0,0,3.27,2.19A2.91,2.91,0,0,0,401.44,138.92Z" style="fill:#b16668"></path><path d="M401,140.12a3.06,3.06,0,0,0-3.26,2.11,2.68,2.68,0,0,0,1.54.11,2.87,2.87,0,0,0,2.13-2.14A3,3,0,0,0,401,140.12Z" style="fill:#f28f8f"></path><path d="M389.6,123l4.36-.78a2.13,2.13,0,0,0-2.49-1.83A2.34,2.34,0,0,0,389.6,123Z" style="fill:#263238"></path><path d="M408.71,126.06l-3.89-2.23a2.16,2.16,0,0,1,3-.89A2.36,2.36,0,0,1,408.71,126.06Z" style="fill:#263238"></path><path d="M393.77,126.83a1.9,1.9,0,0,1-1.87,1.86,1.79,1.79,0,0,1-1.83-1.8,1.9,1.9,0,0,1,1.87-1.86A1.78,1.78,0,0,1,393.77,126.83Z" style="fill:#263238"></path><path d="M406.71,128.93a1.9,1.9,0,0,1-1.87,1.86A1.78,1.78,0,0,1,403,129a1.9,1.9,0,0,1,1.87-1.86A1.78,1.78,0,0,1,406.71,128.93Z" style="fill:#263238"></path><path d="M391.67,134.46l5.49,2.4,2.16-10.31C397,126.42,394.36,130.09,391.67,134.46Z" style="fill:#f28f8f"></path><path d="M399.68,150.48c5.23,0,8.91-.86,11.27-2.35a12.76,12.76,0,0,0,4.31-4.4s-1.12,3.84-3.75,5.84c-4.87,3.7-12.08,3.39-12.08,3.39Z" style="fill:#f28f8f"></path></g><g id="freepik--arm--inject-60"><g id="freepik--arm--inject-60"><path d="M445.25,251.85c1.25-1.36,2.86-2.57,3.38-4.42a3.15,3.15,0,0,0-.45-2.83,1.43,1.43,0,0,1-.34-.51,1.26,1.26,0,0,1,0-.51,3.45,3.45,0,0,0-.14-2.11,2.2,2.2,0,0,0-1.34-1.14,5.09,5.09,0,0,0,0-3.18c-.41-1.21-1.66-2.17-2.48-.82a10.86,10.86,0,0,0-.94,2.12,24,24,0,0,0-1.21,5.64c-.2,2-.68,7.65,2.42,7.92C444.39,252,445.07,252,445.25,251.85Z" style="fill:#f28f8f"></path><path d="M429.48,160.27c12.89,2,15,7.52,22.1,17.29a231.3,231.3,0,0,1,15.21,23.17c3.11,5.71,3.55,7.77-2.16,15.09-2.81,3.62-5.69,6.66-11,12.48-3.37,3.69-7,7.47-10.56,11.21a4.39,4.39,0,0,0-1,3.88,20.54,20.54,0,0,1,.63,2.39,19.92,19.92,0,0,1-.25,3.17,2.74,2.74,0,0,0,1.25,2.72,3,3,0,0,0,1.51.18,11,11,0,0,1-2.91,1.59,4.5,4.5,0,0,1-3.25-.11c-1-.47-1.7-1.39-2.73-1.7-.56-.16-1.16-.13-1.72-.28a2.83,2.83,0,0,1-1.47-1c-.59-.74-.84-1.8-1.67-2.26-.4-.21-.87-.25-1.29-.42a2.88,2.88,0,0,1-1.6-2.13,8,8,0,0,1,.07-2.76,69.45,69.45,0,0,1,1.5-7.3,7.46,7.46,0,0,1,1.18-2.25c.56-.8,1.09-1.63,1.7-2.4,4.09-5.22,14.56-24.88,14.56-24.88l-14.56-18.79S421.76,170.66,429.48,160.27Z" style="fill:#ffa8a7"></path><path d="M447.62,206c3.62,3.55,9.25,3.84,11.32,3.71a12.4,12.4,0,0,1-12.49-1.53Z" style="fill:#f28f8f"></path></g></g></g></g></g><g id="freepik--character-2--inject-60"><g id="freepik--character--inject-60"><g id="freepik--arm--inject-60"><path d="M297.35,234.42a1.69,1.69,0,0,0-1.87.81c-.25-.2-.4-.55-.71-.65s-.73.2-1,.51a7.22,7.22,0,0,0-.15,8.48,1.24,1.24,0,0,0,.4.39,1.37,1.37,0,0,0,.64.1,14.74,14.74,0,0,0,3.37-.49,3.76,3.76,0,0,0,2.7-1.89,4.24,4.24,0,0,0-.07-2.44,6.28,6.28,0,0,0-1.33-2.93C298.86,235.74,298.07,234.61,297.35,234.42Z" style="fill:#af6152"></path><path d="M278.37,150.49c10.9,2.45,13.27,2.56,19.21,12.71,6.95,11.88,15.25,26.82,16.65,30.16,2.56,6.11,2.54,8.35-6.27,18.81-5.49,6.53-11.45,14.41-13.39,16.74-.9,1.09,0,3.33.48,4.66.77,2.09-.19,4.35.37,8.35a18,18,0,0,1,4.49-1.43s-3-3.19-1.68-5.32a.68.68,0,0,1,1-.2c.71.55,1.81,1.8,3.11,3.06,2.28,2.22,1.68,2.69.58,6.46-.43,1.5-1.61,1.93-6.16,2.82s-5.92.28-11.5-4.44-4.36-16.71-1.58-21.27,12.27-22.14,12.27-22.14L279.07,172.4Z" style="fill:#c8856a"></path><path d="M280,150.49c7.45,1.69,10.75,2.68,14.68,8.22s19.78,33.13,20,35.54c-2.47,3.78-12.95,6.44-18.81,5.21l-.24.45-13.11-19.77Z" style="fill:#37474f"></path><path d="M294.41,198l.72,1.09a21.43,21.43,0,0,0,11.34-1.38,10.8,10.8,0,0,0,6.14-8.19l-.64-1.22.37-.12a1.55,1.55,0,0,1,.88.05,3.25,3.25,0,0,1,1.65,1.73,7.74,7.74,0,0,1,.56,2.07,8.11,8.11,0,0,0,.48,1.88c.14.35.38.67.55,1a7.45,7.45,0,0,1,.85,3.17,4.79,4.79,0,0,1-.22,1.92,4.57,4.57,0,0,1-1,1.46c-2.44,2.72-6.29,3.73-9.94,3.8a19.77,19.77,0,0,1-11.28-3.07c-.35-.24-.73-.53-.77-1s.25-.81.23-1.23a3.06,3.06,0,0,0-.28-.82A1.59,1.59,0,0,1,294.41,198Z" style="fill:#263238"></path></g><g id="freepik--bottom--inject-60"><path d="M211.11,398.63c.8-11.61,1.21-17,2.32-37.76h0c.09-5.31.29-11,.64-16.06,1.2-17,3.39-21.06,4.85-26.89s1.27-21.62,3.5-58.2a188.82,188.82,0,0,1,6.75-41.33h52.39c5.38,22.93,6.92,72.59,6.76,96.22-.08,12.05-.22,74.31.09,79.28a16.78,16.78,0,0,0,5,10.8c4.32,4.63,7.42,6.5,12.83,10.54-.79,2.07-12.12,2-15.35.42a120.88,120.88,0,0,1-13.53-7.95c-4.45-3.29-5.49-5.28-5.56-10.29a12.7,12.7,0,0,1,.05-1.63c-.09-2.92-8.52-46.55-10.36-56.4-1.42-7.65.14-22.47.14-22.47l-5.55-36.44s-4.89,29.07-8.24,43.8c-2.45,10.83-8.54,27.93-12.52,45.25h0c-4.65,17.6-5,19.15-7.77,31.76-1.38,6.35-4.76,27.72-6.3,32.12-5,14.19-16.24,7.14-16.87-.7C204,427.47,210.94,401.12,211.11,398.63Z" style="fill:#c8856a"></path><path d="M256.11,280.47l4.06-26.29s15.69-1.86,21.39-7.34c0,0-7.19,10.15-17.84,11.8l-4.47,21.79,2.36,36.17Z" style="fill:#af6152"></path><path d="M318.27,421.1c.29,0,.77,3.23-.81,4.63-1.83,1.6-7.2,4.27-14.36,3.42s-11-3-13.93-5.38-6.92-5.69-10.16-6.37c-3-.63-7.91-2.27-8.88-3.18s-.89-5.05-.89-5.05Z" style="fill:#263238"></path><path d="M271.78,394.68a2.21,2.21,0,0,0-1.14,1.42c-.2,1.13-.2,2.59-.65,4.46a33.49,33.49,0,0,0-.6,10c.42,2.11,7,3.84,10.1,5a39.81,39.81,0,0,1,10.2,6.29c3.38,2.73,10.47,5.43,15.13,5.45,7.11,0,11.69-1.95,13.09-4.52,1.72-3.18.32-5-7.89-8.69-1.55-.7-7-3.86-8.88-5a41.53,41.53,0,0,1-5.6-4.08A32.25,32.25,0,0,1,293,402.6a11.2,11.2,0,0,1-2.1-2.62c-.09-.22-.16-.47-.24-.69a11.61,11.61,0,0,1-.56-1.91c-.14-.68-.23-1.67-.88-2.07a5.46,5.46,0,0,0-2.92-.31,22.18,22.18,0,0,0-3.15.48c-1.2.28-4.22.09-4.92,1.23a6,6,0,0,0-.64,3c0,.48,0,1,0,1.44,0,.2.09.57-.19.48s-.59-.78-.69-1c-.23-.54-.38-1.11-.64-1.63a4.82,4.82,0,0,0-1-1.72c-1.37-1.12-2.69-.89-3.08-1.27C272,396,271.82,395.08,271.78,394.68Z" style="fill:#37474f"></path><path d="M311.35,414.73c-10.28.82-13.46,7.2-13.85,11.14a24.21,24.21,0,0,0,7.32,1.46c7.11,0,12-1.95,13.38-4.52C319.83,419.81,318.67,417.42,311.35,414.73Z" style="fill:#fafafa"></path><path d="M295.92,415a.56.56,0,0,1-.32-.11.51.51,0,0,1-.07-.71,12.08,12.08,0,0,1,9.26-3.77.5.5,0,0,1,.45.55.49.49,0,0,1-.55.45,11.2,11.2,0,0,0-8.38,3.4A.54.54,0,0,1,295.92,415Z" style="fill:#f0f0f0"></path><path d="M291.46,412.46a.49.49,0,0,1-.39-.81,12,12,0,0,1,9.26-3.77.49.49,0,0,1,.45.55.5.5,0,0,1-.55.45,11.19,11.19,0,0,0-8.38,3.39A.48.48,0,0,1,291.46,412.46Z" style="fill:#f0f0f0"></path><path d="M287.33,409.56a.52.52,0,0,1-.32-.11.51.51,0,0,1-.08-.71,12.11,12.11,0,0,1,9.26-3.77.51.51,0,0,1,.46.55.5.5,0,0,1-.55.45,11.22,11.22,0,0,0-8.39,3.4A.49.49,0,0,1,287.33,409.56Z" style="fill:#f0f0f0"></path><path d="M283.27,406.65a.45.45,0,0,1-.31-.11.5.5,0,0,1-.09-.7c1.94-2.51,6.38-4.2,10.12-3.83a.5.5,0,1,1-.1,1c-3.36-.33-7.5,1.22-9.23,3.45A.49.49,0,0,1,283.27,406.65Z" style="fill:#f0f0f0"></path><path d="M222.82,435c-.81,4.79-1.92,7.9-3.94,10.53s-5.34,3.17-8.52,2-7.11-3.87-7.58-8.13-.71-7.16.53-11.55Z" style="fill:#263238"></path><path d="M211.11,398.63c-1.35-.05-1.71,6.38-3.2,12.77-1.6,6.85-2.91,9.49-4.28,15.09-1.57,6.41-.82,9.44,1,13.62s9.48,8.94,14.08,3.75c3.75-4.23,4.44-9.31,4.87-15.84a94.66,94.66,0,0,1,2.7-16.19c1.15-5.18,2.38-9.88,1.27-10.55a47.71,47.71,0,0,1-1.37,5.16c-.18.35-.8,1.19-.86-.19,0-.41.21-1.32.22-1.73a1.72,1.72,0,0,0-1-1.69,12.87,12.87,0,0,0-5.59-1.89c-2.63-.31-4.89-.65-6.44-.06-.93.35-1,1.2-1.19,2-.22,1-.3,1.56-.52,1.34C210.34,403.79,211.18,399.34,211.11,398.63Z" style="fill:#37474f"></path><path d="M202.84,430.22a16.33,16.33,0,0,0,1.42,10.16c1.84,4.19,10.13,9,14.73,3.83,2.29-2.58,3.18-5.84,3.83-9.18C220.92,430.42,207,426.94,202.84,430.22Z" style="fill:#fafafa"></path><path d="M220.67,427.63a.44.44,0,0,1-.16-.06s-6-3.3-12.21-2.57a.52.52,0,0,1-.56-.44.51.51,0,0,1,.45-.56c6.57-.77,12.62,2.58,12.85,2.71a.5.5,0,0,1,.16.69A.5.5,0,0,1,220.67,427.63Z" style="fill:#f0f0f0"></path><path d="M209.14,420.19a.52.52,0,0,1-.39-.38.5.5,0,0,1,.39-.6c6.25-1.38,12.61,2.43,12.85,2.59a.5.5,0,0,1,.13.7.51.51,0,0,1-.7.13s-6.24-3.73-12.07-2.44Z" style="fill:#f0f0f0"></path><path d="M209.86,415.64a.5.5,0,0,1-.38-.37.5.5,0,0,1,.37-.61c6.89-1.64,12.88,2.42,13.1,2.59a.5.5,0,0,1,.09.7.51.51,0,0,1-.71.09s-5.83-3.93-12.25-2.4A.41.41,0,0,1,209.86,415.64Z" style="fill:#f0f0f0"></path><path d="M210.69,411.18a.5.5,0,0,1,0-1c6.47-1.64,12.93,2.56,13.17,2.74a.5.5,0,1,1-.59.8c-.06,0-6.32-4.09-12.33-2.57A.6.6,0,0,1,210.69,411.18Z" style="fill:#ebebeb"></path><path d="M227.65,218.39c-3.72,14.3-5.23,17.82-7.36,49.67-2.08,30.89-.87,40.3-1.18,44-.7,8.53-4.48,11.48-5.58,31.62-1,18.46-1.62,41.22-1.62,41.22s2.48,3.41,9.51,4c6.49.59,9.73-1.85,9.73-1.85s12-43,15.39-53.85c4.55-14.71,9.57-45.4,9.57-45.4l4.24,29.54s-1.37,14.14,1.38,27.5c3.4,16.57,6.87,34.56,6.87,34.56a22,22,0,0,0,9.77,1.22c7.59-.77,10.13-2.53,10.13-2.53s2.13-50,2.13-68.31-.41-63-2.87-91.46Z" style="fill:#455a64"></path><path d="M256.11,287.87l5.27-32s10.58-2.8,17.37-9.9c-.5,5.3-9.91,12.09-14.32,13.15l-5.88,28.33,1.8,29.93Z" style="fill:#37474f"></path><path d="M243.82,223.34a44.34,44.34,0,0,0-4,8.39,83.43,83.43,0,0,0-2.65,8.9c-.69,3-1.27,6-1.67,9.11a59.36,59.36,0,0,0-.61,9.24c.74-3,1.42-6,2.11-9s1.35-6,2.07-8.94,1.43-5.93,2.19-8.88S242.9,226.3,243.82,223.34Z" style="fill:#37474f"></path><path d="M239.78,224.46a33.22,33.22,0,0,0-4.18,4.69,47,47,0,0,0-3.4,5.28,41,41,0,0,0-2.57,5.74,24.8,24.8,0,0,0-1.42,6.14l2.81-5.54c1-1.81,1.9-3.62,2.89-5.41s2-3.58,3-5.39S238.87,226.36,239.78,224.46Z" style="fill:#37474f"></path><path d="M246.5,261.44c-1.33,9.58-2.53,19.18-3.74,28.76s-2.17,25-3.93,34.51-13,46.55-14.41,56.11c2.21-9.42,14.47-46.24,16.33-55.76s2.59-25.06,3.52-34.69S245.92,271.1,246.5,261.44Z" style="fill:#37474f"></path><path d="M280.91,261.44l1.58,25.21c.23,4.2.5,8.4.69,12.59s.44,8.41.37,12.56-.34,44.41.22,52.84c1-9.39,1.45-44.33,1.73-52.81,0-8.52-.75-16.89-1.5-25.3S282.21,269.77,280.91,261.44Z" style="fill:#37474f"></path><path d="M267.82,375.42l1.42,8.76s3.51,2.24,10.88,1.48,8.42-3.14,8.42-3.14v-8.24s-1.76,1.71-8.49,2.47A28.91,28.91,0,0,1,267.82,375.42Z" style="fill:#37474f"></path><path d="M212.06,378.82l-.65,8.85s2.89,3,10.23,4,8.92-1.09,8.92-1.09l1.93-8s-2.12,1.26-8.84.43A29,29,0,0,1,212.06,378.82Z" style="fill:#37474f"></path></g><g id="freepik--top--inject-60"><g id="freepik--Chest--inject-60"><path d="M283.43,167.82c-1.21-8.8-6.83-16.47-16.86-19.78l-16.91-2.25c-4.34,1.13-31.64,9-31.64,9l8.58,46.06s-1.94,19.26-2.35,31.15c12.61,8,48,7.54,61.3-.49C286.07,219.33,284.63,176.55,283.43,167.82Z" style="fill:#fafafa"></path><path d="M279.26,237.94v5a34.34,34.34,0,0,0,11.9-5.89l.12-5.56Z" style="fill:#263238"></path><path d="M288.6,178.57c-.48-11.16-4.76-24.55-8.57-28.08,0,0-11.16-3.73-16.5-4.52v1.14c1.15.1,3.13,1.6,4.05,3.09,1.71,2.77,3.4,7.35,5.5,15.32,2.85,10.84,6,32.95,6.18,46s0,26.42,0,26.42,10-3.18,12-6.48c1.83-4.9-.14-6-.11-9.11C291.3,207.6,288.94,186.74,288.6,178.57Z" style="fill:#5DA5FF"></path><path d="M288.6,178.57c-.48-11.16-4.76-24.55-8.57-28.08,0,0-11.16-3.73-16.5-4.52v1.14c1.15.1,3.13,1.6,4.05,3.09,1.71,2.77,3.4,7.35,5.5,15.32,2.85,10.84,6,32.95,6.18,46s0,26.42,0,26.42,10-3.18,12-6.48c1.83-4.9-.14-6-.11-9.11C291.3,207.6,288.94,186.74,288.6,178.57Z" style="opacity:0.1"></path><path d="M221.57,233.24s-1.08,4.18-.85,5.39,1.93,2.87,7.93,4.9c5.36,1.83,15.59,5.15,24.61,4.84l.32-5.65Z" style="fill:#263238"></path><path d="M248.2,163.91c-1.41-5.95-6.2-12.34-7.63-18.12,0,0-6.16,2.48-13.87,5.12,0,0-3.14,1.41-5.87,2.6-5.51,2.39-6.44,8.09-4.25,16.09,0,0,3.61,17.24,5.52,27.84a59.61,59.61,0,0,1-.37,24.78c-.78,3.39-3,8.69-.1,11,8,6.91,32,9.46,32,9.46s.67-15,0-45.05C253.2,180.8,250,171.49,248.2,163.91Z" style="fill:#5DA5FF"></path><path d="M248.2,163.91c-1.41-5.95-6.2-12.34-7.63-18.12,0,0-6.16,2.48-13.87,5.12,0,0-3.14,1.41-5.87,2.6-5.51,2.39-6.44,8.09-4.25,16.09,0,0,3.61,17.24,5.52,27.84a59.61,59.61,0,0,1-.37,24.78c-.78,3.39-3,8.69-.1,11,8,6.91,32,9.46,32,9.46s.67-15,0-45.05C253.2,180.8,250,171.49,248.2,163.91Z" style="opacity:0.1"></path></g><g id="freepik--head--inject-60"><path d="M244.23,89.14c14.66-1.73,25.17,6.26,28.45,14.66S271.9,126,262.56,135l-34.38-24.24C224.89,100.29,229.72,90.85,244.23,89.14Z" style="fill:#263238"></path><path d="M268.44,130.94a4.68,4.68,0,0,1-5.35-1l.36,17.34c2.41,4,4.82,9.9-3,10.87s-13.55-2.9-18.21-10.66l-.49-6.31a27.17,27.17,0,0,1-5.64-.16c-3.88-.68-6.58-3.45-7.66-7.69-1.73-6.81-1.25-21.35,1.07-30.36,4.43-3.29,21.27-3.2,30.3,2.78-1.14,5.51-1.24,7.11-.72,10.5s1.72,5,2.72,5.14c1.86.32,2.19-1.69,3.41-2.92s5.78-1.86,7.64,2.29S271.13,130,268.44,130.94Z" style="fill:#c8856a"></path><path d="M241.78,141.17c6.22-.49,14.49-3.21,16.53-6a20.93,20.93,0,0,0,2.81-5.11,15.43,15.43,0,0,1-1.75,6.33c-1.56,2.45-7.75,6.6-17.48,7.06Z" style="fill:#af6152"></path><path d="M245.26,116.83a1.87,1.87,0,1,0,1.91-1.9A1.9,1.9,0,0,0,245.26,116.83Z" style="fill:#263238"></path><path d="M246.91,110.2l4,2.87a2.56,2.56,0,0,0-.58-3.5A2.38,2.38,0,0,0,246.91,110.2Z" style="fill:#263238"></path><path d="M230.66,110.64l4.29-1.36a2.17,2.17,0,0,0-2.75-1.51A2.36,2.36,0,0,0,230.66,110.64Z" style="fill:#263238"></path><path d="M230.57,116.08a1.87,1.87,0,1,0,1.91-1.9A1.9,1.9,0,0,0,230.57,116.08Z" style="fill:#263238"></path><polygon points="239.29 126.41 232.47 124 239.56 111.94 239.29 126.41" style="fill:#af6152"></polygon><path d="M245.21,127.91l-6.07,2.21a3.18,3.18,0,0,0,4.09,2A3.4,3.4,0,0,0,245.21,127.91Z" style="fill:#af6152"></path><path d="M245.37,128.85a3.36,3.36,0,0,1-2.14,3.32,3.14,3.14,0,0,1-2.16,0A5,5,0,0,1,245.37,128.85Z" style="fill:#ffa8a7"></path></g><path d="M263.45,147.27c5,6.49,11.76,24.42,13.42,38.22.61-6,1.31-21.12,0-24.94a36,36,0,0,0-4.24-7.89s.93-3,.65-3.37c-1.34-1.78-9.88-6.95-9.88-6.95Z" style="fill:#263238"></path><path d="M241.85,142.34l.43,4.2c2.48,4.73,5.12,9,7.14,17.66A168.65,168.65,0,0,1,253,187.88s-9.74-16.34-12-20.69c-1.42-2.77-.58-11-.58-11s-5.07-1.37-5.74-2.08c-.91-1,.8-6.39.8-6.39Z" style="fill:#263238"></path><path d="M226.39,151.05c-12.67,3.31-14.41,6.52-19.65,17.41-2.69,5.59-9.42,18.68-11.39,23.08-6.14,13.7-6.54,21.35-2.49,24.54,4.63,3.66,30.62-28.77,30.62-28.77S236.48,160.58,226.39,151.05Z" style="fill:#37474f"></path><path d="M201.78,210.2c1.1-1.13,2.34-2.47,3.65-3.91,6.43-7.69,18-19,18-19a80.22,80.22,0,0,0,3.17-7.63c-4.26,2.28-21.26,10.69-26.2,14.59-5.37,4.23-6,8.06-7.42,12.45Z" style="fill:#263238"></path><path d="M210.77,189.82c-5.74-.7-17.4,4.81-19.91,8.57s-1.25,6.9-2,9.28-1.07,6.77,1.35,9.15,9.58,5,16.46-.59Z" style="fill:#263238"></path><path d="M222.73,184.1c5.15-2.61,7-3.36,10.69-7.09a57.35,57.35,0,0,1,9.71-7.47c2.65-1.83,4.37-4.94,5.82-6.26,1-.91,2.27.74,1.91,3.14-.26,1.66-1.52,3.58-3.28,5.46s-.83,1.68,1.35,1.38a77.76,77.76,0,0,1,11.92,0c2.19.33,4.31,1.12,4,2.51,0,0,3.51-.32,3.69,1.52s-2.48,3.18-2.48,3.18.14,1.54-2.58,2.46c-1.53.52-6.15,1.2-7.81,1.63-1.88.48-3.89,1.21-3.89,1.21s6.13-.26,8.08,0c2.21.29,1.91,1.84-.65,2.88s-10,1-12.18,1.92-4.15,1.28-8.43,1.77a8.85,8.85,0,0,0-5.92,3c-2.59,2.7-14.15,12.2-17.1,15.31A23.17,23.17,0,0,1,204.28,217c-5.7,1.54-10.52,0-11.57-1s-1.64-4.63.74-10.14c3.14-7.26,4.72-8.64,9.89-11.91C209.05,190.28,220,185.51,222.73,184.1Z" style="fill:#c8856a"></path><path d="M247.58,171.88c-1.07,1.15-1.14,1.52-.56,1.57h0c-.84.05-2.53.35-2.71-.32s1.46-1.63,3.11-2.77a11.54,11.54,0,0,0,3.44-3.94C250.6,168.08,249.34,170,247.58,171.88Z" style="fill:#af6152"></path><path d="M264.81,175.76a68.22,68.22,0,0,0-10.21-.08,30.46,30.46,0,0,0-4.18.57,39.48,39.48,0,0,0-4.1,1c1.4,0,2.79-.12,4.17-.25s2.76-.31,4.1-.36,4.69-.26,6.07-.4S263.42,175.92,264.81,175.76Z" style="fill:#af6152"></path><path d="M266,180.46a.92.92,0,0,0-.1-.56,1,1,0,0,0-.44-.39,3.44,3.44,0,0,0-1.12-.33,13.76,13.76,0,0,0-2.31-.05c-1.52.07-4.95.28-6.47.44-.76.1-1.52.19-2.29.34s-1.52.37-2.25.57c-1.47.38-2.95.81-4.42,1.29,1.53-.12,3-.3,4.55-.56.77-.12,1.51-.32,2.23-.4s1.49-.2,2.24-.28c1.5-.17,4.93-.42,6.44-.63a21.2,21.2,0,0,1,2.22-.24C265,179.63,265.88,179.65,266,180.46Z" style="fill:#af6152"></path><path d="M247.27,186s2.49-.54,3.9-.9,6.06-.83,6.06-.83h0c-.38.06-1.28.19-1.6.28-1.88.48-3.89,1.21-3.89,1.21A41.5,41.5,0,0,0,247.27,186Z" style="fill:#af6152"></path></g></g></g><g id="freepik--character-1--inject-60"><g id="freepik--character--inject-60"><g id="freepik--arm--inject-60"><path d="M194.76,148a5.09,5.09,0,0,0-3,0,34.12,34.12,0,0,0-4.49,2.13c-2.3,1.06-6,2.81-8.55,2.52-.53,0-1.59-.33-.84-.93a21.08,21.08,0,0,0,2.87-2.45,4.52,4.52,0,0,0,1.29-3.43,1.58,1.58,0,0,0-.46-1c-.41-.34-.72-.16-1.08.07a9,9,0,0,1-1.19.62c-.84.41-1.67.81-2.5,1.23-4.85,2.42-9.72,5.31-12.79,9.91-.45.67-3.22,6-5,9-1.45,2.73-10.27,16.57-10.27,16.57S136,171.4,130.32,166.46c-6.1-5.3-12-9.69-19.64-8.86l10,28.63s16.47,12,19.7,14.11c8.14,5.39,9.88,7.15,14.94,2.78,6.19-5.37,7.86-11.79,10.47-18.74,2.93-7.82,3.9-11.61,5.44-13.93s3.81-2.34,5.44-2.73a24.78,24.78,0,0,0,6.45-2.33,22.58,22.58,0,0,0,5.06-3.24,6.88,6.88,0,0,0,2-2.12,22.57,22.57,0,0,1,.61-2.35c.44-.85,1.27-1.46,1.61-2.35a8.61,8.61,0,0,0,.29-2.22,3.77,3.77,0,0,1,1.78-2.52,3.38,3.38,0,0,0,1.12-1.17C196,148.63,195.43,148.19,194.76,148Z" style="fill:#b16668"></path><path d="M110.18,156.83c5.36.34,9.29.24,15.09,4.89s14.89,12.52,14.89,12.52-.93,6.62-4.24,10.86a39.48,39.48,0,0,1-7.66,7.24l-18.08-10Z" style="fill:#5DA5FF"></path><path d="M110.18,156.83c5.36.34,9.29.24,15.09,4.89s14.89,12.52,14.89,12.52-.93,6.62-4.24,10.86a39.48,39.48,0,0,1-7.66,7.24l-18.08-10Z" style="opacity:0.30000000000000004"></path><path d="M148.73,182.19c-3.52,5.24-3.75,10.36-3.35,12.37a16,16,0,0,1,1.39-14Z" style="fill:#9a4a4d"></path><path d="M175.9,154.66a16.68,16.68,0,0,1-6.21,6.83,6.88,6.88,0,0,0,4.41-1.9A6.49,6.49,0,0,0,175.9,154.66Z" style="fill:#9a4a4d"></path></g><g id="freepik--bottom--inject-60"><path d="M63.65,232.43l65-.59c6.9,61.16,3.88,67.11,4,97.07.05,15.34-5.25,59.69-5.13,71.63,0,.72-3.18,4-8.08,3.54s-6.33-2.08-6.36-2.59c-.13-1.77-2.09-4.25-2.36-6-1.79-11.42-3.91-26.13-5.73-37.83a74.11,74.11,0,0,1,.61-26.79l-9.59-44.71c-.82,6.79-1.59,12.77-3,19.62L92.31,309c-.34,4-6.24,5-8.26,5.4-5.46,1.14-10.42-.07-15.47-2.43s-7.39-5.28-7.62-9.84l.1-2.65c-.13-3.79,0-6.92-.23-10.5C58.72,256.29,60.65,239.14,63.65,232.43Z" style="fill:#c8856a"></path><path d="M128.7,229.05s3,21,4.27,39.56a642.36,642.36,0,0,1,.29,68.8c-1.2,22-4,46.6-4,46.6s-3,3-11.4,2.85-10.1-2.85-10.1-2.85-5-28.82-5-36.58a81.29,81.29,0,0,1,1.92-16.17L96.1,287.88S93.79,305.55,92.36,309s-7,7-17.85,4.24S61.85,308.66,61,302.13s-1.85-34.46-1.64-47S64.79,228,64.79,228Z" style="fill:#455a64"></path><path d="M70,235.72c-5.68,16.85-5.31,39.17-5.06,53.93.13,7.34.13,14.57.11,20.19a8.77,8.77,0,0,1-.89-.63c0-5.52,0-12.48-.11-19.54-.25-14.83-.62-37.24,5.11-54.24Z" style="fill:#37474f"></path><path d="M67.84,262.57a7,7,0,0,0,3.86-1.09c2.59-1.66,4.33-5.19,5.18-10.52,1.89-11.8,2.62-17.14,2.62-17.2l-.88-.11S77.89,239,76,250.82c-.81,5.06-2.42,8.4-4.78,9.91-1.67,1.06-3.69,1.23-6.19.53l-.24.85A11.07,11.07,0,0,0,67.84,262.57Z" style="fill:#37474f"></path><path d="M96.1,287.88,98.61,262s13.59-2.25,19.76-11.61c0,0-.66,11-16.49,15.53l-1.61,20.66,4.37,44.71Z" style="fill:#37474f"></path><path d="M51.91,398.44c.94-4.59,4.11-7.35,9.34-7.43s7.71,6.39,7.42,9.84Z" style="fill:#263238"></path><path d="M69.94,349.53a4,4,0,0,0-3.55-.67c-.54.19-.86.51.56,1.16L57,402.31a9.24,9.24,0,0,0,5,.95L72,351A5.54,5.54,0,0,1,69.94,349.53Z" style="fill:#e0e0e0"></path><path d="M71.43,349.81a4,4,0,0,0-3.55-.67A1.27,1.27,0,0,0,67,350L57,402.31a1.25,1.25,0,0,0,.54,1.16,4,4,0,0,0,3.55.68,1.3,1.3,0,0,0,.93-.89L72,351A1.28,1.28,0,0,0,71.43,349.81Z" style="opacity:0.1"></path><path d="M59.39,389.85c-.17,1.68,4.74,2.45,5.06.75.78.52,1.38.86.83,3.26s3.09,3.26,2.63,6.67c-1.1,8.36-4.78,6.57-9.42,6-2.42-.3-5.18-2-6-4,0,0,.29-3.75.51-4.63.87-3.45,4-2.88,4.51-5.25C57.73,391.42,58.13,389.93,59.39,389.85Z" style="fill:#455a64"></path><path d="M68.08,348.64a1.27,1.27,0,0,0-1,.83,1.25,1.25,0,0,0,.48,1.19,4,4,0,0,0,3.51.86,1.1,1.1,0,0,0,.49-2A4,4,0,0,0,68.08,348.64Z" style="fill:#455a64"></path><path d="M73.13,350a7.74,7.74,0,0,0-6.9-1.31,2.46,2.46,0,0,0-1.81,1.72l-.48,2.52a2.46,2.46,0,0,0,1,2.27,7.77,7.77,0,0,0,6.9,1.31,2.47,2.47,0,0,0,1.81-1.72l.48-2.53A2.45,2.45,0,0,0,73.13,350Z" style="fill:#e0e0e0"></path><path d="M66.23,348.7a2.14,2.14,0,0,0-.76,4,7.77,7.77,0,0,0,6.9,1.31,2.14,2.14,0,0,0,.76-4A7.74,7.74,0,0,0,66.23,348.7Z" style="fill:#ebebeb"></path><path d="M85.65,316.52c-4.32-3.93-12.69-5.63-18.14-3.71-2.61.91-4,2.48-4.08,4.23L61.3,349c0,.75.67,1.66,2.15,2.53a20.53,20.53,0,0,0,11.1,2.37c1.7-.19,2.72-.73,3-1.44l10.3-30.38C88.38,320.39,87.73,318.41,85.65,316.52Z" style="fill:#455a64"></path><path d="M59.74,330.09v.08c0,1,1,2.44,2.54,3.91.23.22.46.43.72.65A20.22,20.22,0,0,0,71,339c5.92,1.42,12.75,1.3,13.56-.55s1.63-3.79,2.31-5.46a126.47,126.47,0,0,0,5.47-18.51c1-5.32,1.63-8.32.69-8.65L92.36,309s-4.64,5.73-17.93,2.7c-5.32-1.21-8.54-3-10.48-4.78h0c-.25-.22-.47-.44-.67-.65A7.44,7.44,0,0,1,61,302.14l-.25-2.66c-1.12-.13-.95,1.59-.9,5.26s.61,15.58.25,19.69C60,326.07,59.84,328.17,59.74,330.09Z" style="fill:#37474f"></path><path d="M62.28,334.08c.23.22.46.43.72.65l.06-.37c.13-1,.23-2,.31-3.05a71.07,71.07,0,0,0,.29-7.44c0-3.77-.21-7.53-.08-11.3.06-1.73.17-3.44.31-5.16l.06-.48h0c-.25-.22-.47-.44-.67-.65l-.06.52c-.18,1.9-.32,3.8-.4,5.7-.16,3.59-.08,7.17,0,10.76,0,2.61,0,5.21-.21,7.8C62.51,332.06,62.42,333.07,62.28,334.08Z" style="fill:#263238"></path><path d="M67.27,312a1.07,1.07,0,1,0-1.15,1A1.08,1.08,0,0,0,67.27,312Zm.06,6.66a1.08,1.08,0,1,0-1.16,1A1.08,1.08,0,0,0,67.33,318.67ZM66.16,327a1.08,1.08,0,1,0-1-1.16A1.08,1.08,0,0,0,66.16,327Zm-2.1,6.62a1.07,1.07,0,1,0,1.15-1A1.07,1.07,0,0,0,64.06,333.57Z" style="fill:#263238"></path><path d="M66.13,430.25c-.49,4.91-1.39,8.15-3.25,11s-5.21,3.6-8.51,2.62-7.5-3.42-8.29-7.71-.47-7.2.47-11.74Z" style="fill:#263238"></path><path d="M53.4,395.49c-1.18.33-2.24,6.67-3.3,13.27-1.13,7.07-2.47,9.17-3.47,15-1.14,6.62-.76,8.86,1.41,13s10.27,8.4,14.57,2.8c3.5-4.56,3.7-9,3.67-15.68A138.36,138.36,0,0,1,67,408c.47-5,2.22-9.6,1-10.21-.12.73-1.42,6.28-2.32,5.63-.41-.1-.46-.8-.31-2.09a2.21,2.21,0,0,0-.31-1.62,2.58,2.58,0,0,0-1.5-.74c-1.35-.33-3.2-.82-4.57-1-.8-.11-.35-.1-1.15-.18a7.2,7.2,0,0,0-3,0c-.43.2-.49.62-.62,1.09s-.26,1.1-.42,1.56c-.07.18-.34.56-.53.53s-.37-.9-.33-1.27,0-1,.07-1.43S53.22,396.65,53.4,395.49Z" style="fill:#37474f"></path><path d="M47,421.45c-.18,1-1.08,6.92.6,8.14s3-3.64,3-3.64,4.45-1.17,10.74,1.89c-.37,1,.48,4.46,2.26,3.81s2.61-7.16,2.62-7.26c0,6.38-.27,10.68-3.67,15.11-4.3,5.6-12.4,1.32-14.57-2.8s-2.55-6.36-1.41-13C46.75,423.06,46.86,422.05,47,421.45Z" style="fill:#455a64"></path><path d="M51.15,426.4c-.13,2.4-2.24,1.49-2.43-1.91-.29-5.09,1.17-9.88,1.38-15.73,1.06-6.6,1.92-13.22,3.3-13.27-.1,1.15-.37,3.61-.37,3.61-.06.49-.16,1.73-.16,1.73-.63,4.94-2.17,10.68-2.17,15.8C50.69,421.14,51.27,424,51.15,426.4Z" style="fill:#263238"></path><path d="M60.66,427.74c.54-2.34,1.34-3,2-7.44s2.49-12.25,3.62-17.06c.32-1.49,1.71-5.41,1.72-5.46.85.46,1,3.2.15,6.17s-1.33,4.79-1.88,7.66c-1.41,5.67-1.83,11.75-2.74,15S60.11,430.09,60.66,427.74Z" style="fill:#263238"></path><path d="M61.2,427.88a.6.6,0,0,1-.19-.06,16.22,16.22,0,0,0-10.56-1.53.51.51,0,0,1-.61-.39.52.52,0,0,1,.39-.61,17.08,17.08,0,0,1,11.29,1.64.51.51,0,0,1,.19.7A.49.49,0,0,1,61.2,427.88Z" style="fill:#f0f0f0"></path><path d="M62.78,423.16l-.17-.05S56.55,420,50.29,421.2a.52.52,0,0,1-.6-.41.51.51,0,0,1,.41-.59c6.62-1.25,12.75,1.88,13,2a.51.51,0,0,1-.31,1Z" style="fill:#f0f0f0"></path><path d="M49.74,417.27a.53.53,0,0,1-.42-.36.52.52,0,0,1,.35-.64c6.26-1.84,14.26,1.37,14.51,1.52a.51.51,0,0,1,.19.7.53.53,0,0,1-.7.19c-.06,0-7.89-3.15-13.71-1.43A.55.55,0,0,1,49.74,417.27Z" style="fill:#f0f0f0"></path><path d="M50.92,413a.52.52,0,0,1-.09-1c6.89-2.16,13.72,1.84,14,2a.51.51,0,1,1-.56.85S57.55,411,51.14,413A.55.55,0,0,1,50.92,413Z" style="fill:#f0f0f0"></path><path d="M51.55,407.76a.54.54,0,0,1-.42-.35.5.5,0,0,1,.33-.64c6.46-2.13,13.78,2,14,2.14a.52.52,0,0,1,.16.71.5.5,0,0,1-.7.16c-.06,0-7.17-4-13.17-2A.62.62,0,0,1,51.55,407.76Z" style="fill:#ebebeb"></path><path d="M153.49,422c.3,0,.75,3.26-.85,4.65-1.86,1.6-7.3,4.24-14.5,3.32s-9.21-2.35-12.09-4.76-5.54-4.93-8.79-5.64c-3-.66-7.64-1.86-8.6-2.8s-.85-5.09-.85-5.09Z" style="fill:#263238"></path><path d="M110.53,393.69c-2.16.11-1.25,5.19-2.14,7.36a47.44,47.44,0,0,0-.44,12.09c.4,2.13,6.65,3.44,9.81,4.64,7.09,2.79,13.23,11,22.13,10.4,5.55-.05,11.79-1.86,13.22-4.44,5.59-11.31-22-11.79-24.19-27.92-.11-1-.7-1.49-2.88-1.53-2.5,0-5.57.57-7.39,2.44-.73,1.08,0,2.57-.61,3.65-1.39.45-2.29-2-3.19-2.81C113.34,396.49,109.87,396.35,110.53,393.69Z" style="fill:#37474f"></path><path d="M126.58,423.34a42.55,42.55,0,0,0-3.82-2.93h0s8.77,3.45,12.68.77c2.51-1.73,1.31-3.82,1.25-4.49s5.86-3.52,8.31-3.82l1-.05c.68.38,1.49.72,1.84.9,7.3,3.71,7,6.83,5.25,10-1.43,2.58-6,4.6-13.12,4.61A22.83,22.83,0,0,1,126.58,423.34Z" style="fill:#455a64"></path><path d="M136,414.75c5.12,2,2.94,3,1.51,3.2s-8.67-3.94-13.93-8.08c-5.48-4.33-10.27-8.9-12.31-10.49-.76-.59-1.58-1.32-2.3-2,.13-1.13.24-2.15.34-2.69a1.28,1.28,0,0,1,1.21-1l.28,1.8a4,4,0,0,0,1.5.76,6.4,6.4,0,0,1,2.54,1.32,22.68,22.68,0,0,0,2.22,2.66C121.55,405.89,130.89,412.71,136,414.75Z" style="fill:#263238"></path><path d="M137.15,417.2a.54.54,0,0,1-.32-.11.51.51,0,0,1-.07-.72,12.16,12.16,0,0,1,9.36-3.71.5.5,0,0,1,.45.55.49.49,0,0,1-.55.45,11.3,11.3,0,0,0-8.48,3.35A.48.48,0,0,1,137.15,417.2Z" style="fill:#f0f0f0"></path><path d="M132.67,414.69a.5.5,0,0,1-.32-.11.51.51,0,0,1-.09-.71,12.18,12.18,0,0,1,9.28-3.93.51.51,0,0,1-.08,1,11.31,11.31,0,0,0-8.4,3.54A.49.49,0,0,1,132.67,414.69Z" style="fill:#f0f0f0"></path><path d="M128.54,411.83a.51.51,0,0,1-.4-.83,12.17,12.17,0,0,1,9.37-3.71.51.51,0,0,1,.45.56.52.52,0,0,1-.56.45,11.29,11.29,0,0,0-8.47,3.34A.49.49,0,0,1,128.54,411.83Z" style="fill:#f0f0f0"></path><path d="M124.88,409.25a.55.55,0,0,1-.32-.1.5.5,0,0,1-.1-.71,12.17,12.17,0,0,1,9.19-4.11.5.5,0,0,1,.48.53.51.51,0,0,1-.54.48,11.29,11.29,0,0,0-8.32,3.7A.53.53,0,0,1,124.88,409.25Z" style="fill:#f0f0f0"></path><path d="M121,406.2a.55.55,0,0,1-.32-.1.52.52,0,0,1-.11-.71c1.88-2.58,6.3-4.41,10.08-4.15a.51.51,0,0,1-.07,1c-3.4-.23-7.52,1.45-9.19,3.74A.51.51,0,0,1,121,406.2Z" style="fill:#f0f0f0"></path><path d="M133.8,323.61c0,1-.05,1.91-.08,2.86a57.64,57.64,0,0,0-17.22.82C119,325.22,128,322.53,133.8,323.61Z" style="fill:#c8856a"></path><path d="M133.59,330.18c0,.9-.07,1.79-.11,2.67-1.3-.11-9.34-.83-12.89-2.24A94.93,94.93,0,0,1,133.59,330.18Z" style="fill:#c8856a"></path><path d="M89.63,298.24s-2.73-3.94-9.43-4.75S70,296.32,70,296.32,82.45,295,89.63,298.24ZM69.26,299c8.64,1.71,12.59,1.36,16.53.58C85.79,299.54,73.36,298,69.26,299Z" style="fill:#c8856a"></path><path d="M110.62,326.6c.71,3.65,0,7.27-.81,11.47a72.5,72.5,0,0,0-1.63,13.28c-.13,8.43,2.78,26.36,4.28,34.95-.34-.07-.65-.15-.94-.23-1.52-8.76-4.35-26.36-4.22-34.73a72.15,72.15,0,0,1,1.64-13.44c.83-4.28,1.49-7.65.81-11.14-1.38-7-5.41-45.36-5.64-64.33H105C105.22,281.35,109.25,319.57,110.62,326.6Z" style="fill:#37474f"></path></g><g id="freepik--top--inject-60"><path d="M63.65,235.76c2.2-10,5.55-24.83,5.63-27,.32-9-2-15.68-2.83-21.27-1.82-12.17,2.74-22.39,5.58-24.78,0,0,4.55-1.86,7.89-3.26,10.61-4.45,15.25-5.06,22.72-2.44,1.25.44,11.1,4.93,11.11,4.93a40,40,0,0,1,8.36,10.76c3.09,5.52,4.61,10.13,4.2,21.95-.12,3.55-.26,9.9-.12,15,.31,10.84,1.13,15.31,2.51,25.16C116.23,242.39,84.85,245.92,63.65,235.76Z" style="fill:#263238"></path><g id="freepik--head--inject-60"><path d="M84.13,148.12l-.73.29A5.53,5.53,0,0,1,78,147.7,9,9,0,0,0,75.85,146c-1-.39-2.12-.11-3.17-.27a3.87,3.87,0,0,1-2.37-1.32c-.65-.77-.44-1.85-.9-2.71s-1.14-1.43-1.17-2.49a6,6,0,0,1,.6-2.47c-1.2.78-2.71,1.58-4,.94.62,0,1.39-.17,1.54-.75a1.06,1.06,0,0,0-.25-.88c-.68-.91-1.91-1.24-2.73-2a3.13,3.13,0,0,1,0-4.38c.67-.64,1.62-1,2.17-1.73a2.18,2.18,0,0,0,.43-1.45c-.1-1.42-1.38-2.08-2.13-3.11a5.09,5.09,0,0,1-.88-3.71,4.71,4.71,0,0,1,1.67-3c.85-.6,2-.57,2.86-1.13,1.36-.87,1-3,1.58-4.43a4.24,4.24,0,0,1,2.67-2.23,11.75,11.75,0,0,1,3.55-.41,5.7,5.7,0,0,1,3.89-8.08c.94-.21,1.94-.17,2.86-.47,1.7-.55,2.83-2.1,3.94-3.49s2.51-2.81,4.29-2.91c2.25-.12,4.1,1.92,6.34,2.17s4.09-1.15,6.22-1.36a7,7,0,0,1,6,2.84c.6.73.93,1.74,1.74,2.24,1,.64,2.39.51,3.54.55a9.63,9.63,0,0,1,6.88,3.32,3.86,3.86,0,0,1,1.12,3.18c-.19.88-.86,1.74-.52,2.57a2.64,2.64,0,0,0,1.15,1.09,7.18,7.18,0,0,1,2.66,2.92,4,4,0,0,1-.18,3.79,3.53,3.53,0,0,0-3.72-3.42,3.83,3.83,0,0,1,2.31,2.5,3.72,3.72,0,0,1-.7,3.29c-.53.65-1.32,1.19-1.46,2a1.78,1.78,0,0,0,1.16,1.84,2.74,2.74,0,0,0,2.3-.24,3.52,3.52,0,0,1-4.61,1.46,6.26,6.26,0,0,1,2.17,6.6,7.33,7.33,0,0,1-2.24,3.5c-1,.94-2.62,1.26-3.54,2.25s-1.2,2.68-2.3,3.65c-1.26,1.1-3.24.64-4.35,2.14-.31.43-.49.93-.83,1.34a3.62,3.62,0,0,1-1.67,1c-4.68,1.52-10-1.44-14.65.26-1.54.57-2.84,1.61-4.33,2.27a8.19,8.19,0,0,1-3.1.48A4.41,4.41,0,0,0,84.13,148.12Z" style="fill:#263238"></path><path d="M74.24,131.83c2.42-3.07,5.86-2.37,7.54.21.61.93,1.93,2,3,1a2.7,2.7,0,0,0,.38-2.15c-.07-.65-.25-.87,0-1.37s.8-.57,1-1.12c.44-1.19-.3-2.58.11-3.78.28-.8,1-1.43,1.1-2.28a9.91,9.91,0,0,0-.27-1.6c-.1-1.13.72-2.22.5-3.33-.26-1.29-1.14-2.4.06-3.55,1-1,2.46-1.05,3.49-2.25.87-1,1.78-2.21,3.12-2.39s2.39.62,3.62.68,2.51-.67,3.71-1.21,2.7-.85,3.74,0c.5.39.81,1,1.32,1.37,1.33,1,3.2.18,4.54,1.08a11.67,11.67,0,0,1,2.25,2.49,15.38,15.38,0,0,1,2.54,9.5c-.15,2,.58,4.44.71,8.18.49,14.11-3.32,17.19-7.07,19-2.25,1.07-3.5,1.28-7.13,1.36l.18,5.34s3.74,4.22,4.28,15.77c-18.9-8.5-23.09-14.86-23.11-14.89l-1-15.34a4.45,4.45,0,0,1-4.8.15C74.11,140.58,71.82,134.89,74.24,131.83Z" style="fill:#b16668"></path><path d="M95.87,112.4a13.39,13.39,0,0,1,5.43.91,1.69,1.69,0,0,1,.87.77,1.38,1.38,0,0,1-.2,1.31c-.53.76-1.16,1-1.32,2a2.31,2.31,0,0,0,3.61,2.28,1.14,1.14,0,0,1-1.25-.3,1.5,1.5,0,0,1-.32-1.29c.38-1.92,2.67-2.43,2.69-4.64a3.65,3.65,0,0,0-1.66-3c-.8-.5-1.77-.67-2.61-1.1-1.74-.89-2.8-2.82-4.59-3.59a4.19,4.19,0,0,0-3.79.26,4,4,0,0,0-1.88,3.3C90.82,112,93.63,112.3,95.87,112.4Z" style="fill:#263238"></path><path d="M98.46,138.4l6.6,2.07a3.32,3.32,0,0,1-4.22,2.33A3.63,3.63,0,0,1,98.46,138.4Z" style="fill:#9a4a4d"></path><path d="M102.36,142.91a3.1,3.1,0,0,0-3.19-3,3.67,3.67,0,0,0-.75.12,3.62,3.62,0,0,0,2.42,2.74A3.44,3.44,0,0,0,102.36,142.91Z" style="fill:#ffa8a7"></path><polygon points="103.17 123.84 104.49 136.41 110.68 133.22 103.17 123.84" style="fill:#9a4a4d"></polygon><path d="M102.46,151.62c-4.54-.09-14.3-2.23-16.87-8.16,0,0,.51,4.27,6.18,7.4,4.47,2.47,10.74,2.8,10.74,2.8Z" style="fill:#9a4a4d"></path><path d="M98.17,128a2,2,0,1,1-1.89-2.12A2,2,0,0,1,98.17,128Z" style="fill:#263238"></path><path d="M113.1,127a2,2,0,1,1-1.59-2.35A2,2,0,0,1,113.1,127Z" style="fill:#263238"></path><path d="M112.07,119.15a2.86,2.86,0,0,0-3.38,2.23l5.62,1.15A2.87,2.87,0,0,0,112.07,119.15Z" style="fill:#263238"></path><path d="M93.31,120.87a2.87,2.87,0,0,0-1.38,3.81l5.2-2.43A2.88,2.88,0,0,0,93.31,120.87Z" style="fill:#263238"></path></g><path d="M83.74,155.65a45.31,45.31,0,0,0,2.24,8c1.94,5.53,2.73,10,3.5,22s-1.62,57.35.14,70.88c-8.91.32-23.34-5.11-30.24-12.06.1-4.75,1.1-4.18,3.86-16.42s6-13.32,5.13-19.79-8-32.08-3.16-45.45a74.62,74.62,0,0,0,9.15-2.11C82.74,158.36,83.74,155.65,83.74,155.65Z" style="fill:#5DA5FF"></path><path d="M83.74,155.65a45.31,45.31,0,0,0,2.24,8c1.94,5.53,2.73,10,3.5,22s-1.62,57.35.14,70.88c-8.91.32-23.34-5.11-30.24-12.06.1-4.75,1.1-4.18,3.86-16.42s6-13.32,5.13-19.79-8-32.08-3.16-45.45a74.62,74.62,0,0,0,9.15-2.11C82.74,158.36,83.74,155.65,83.74,155.65Z" style="fill:#fff;opacity:0.4"></path><path d="M102.72,154.34l.36,1.2c.12,3.44,7.39,8.66,12.64,16.6S122,188,122.05,198.32s4.09,49.15,5.33,54.18a14.1,14.1,0,0,0,5.59-8.66c-1-6.12-2.9-16.75-3.91-20.46s-1.18-9.82-1.45-17.49a69.21,69.21,0,0,1,.27-9.95s4.69-6.27,1.42-17.48-19.12-21.63-19.12-21.63a28.91,28.91,0,0,0-3.05-.64A16.62,16.62,0,0,1,102.72,154.34Z" style="fill:#5DA5FF"></path><path d="M102.72,154.34l.36,1.2c.12,3.44,7.39,8.66,12.64,16.6S122,188,122.05,198.32s4.09,49.15,5.33,54.18a14.1,14.1,0,0,0,5.59-8.66c-1-6.12-2.9-16.75-3.91-20.46s-1.18-9.82-1.45-17.49a69.21,69.21,0,0,1,.27-9.95s4.69-6.27,1.42-17.48-19.12-21.63-19.12-21.63a28.91,28.91,0,0,0-3.05-.64A16.62,16.62,0,0,1,102.72,154.34Z" style="fill:#fff;opacity:0.4"></path><path d="M83.34,150.89a15.57,15.57,0,0,1-6.25,9s2.72,10.81,2.5,16.18-1.12,10.59.35,10.5a39.87,39.87,0,0,0,5.88-1.61s-3.38,5.35-3,7,6.58,19.8,6.58,19.8,1.57-21.33,1-27.56S88.3,166.51,85.85,160A57.66,57.66,0,0,1,83.34,150.89Z" style="fill:#5DA5FF"></path><path d="M83.34,150.89a15.57,15.57,0,0,1-6.25,9s2.72,10.81,2.5,16.18-1.12,10.59.35,10.5a39.87,39.87,0,0,0,5.88-1.61s-3.38,5.35-3,7,6.58,19.8,6.58,19.8,1.57-21.33,1-27.56S88.3,166.51,85.85,160A57.66,57.66,0,0,1,83.34,150.89Z" style="opacity:0.30000000000000004"></path><path d="M122.55,207.56c.1-6,2.7-21.11,3-24.12s-4-5.59-4-5.59,2.59.57,3.41-.12-4.6-8-9.18-12.76-13.25-12-13.25-12l.16,4a55.6,55.6,0,0,1,6.73,8.23C113.43,171.41,120.86,178.06,122.55,207.56Z" style="fill:#5DA5FF"></path><path d="M122.55,207.56c.1-6,2.7-21.11,3-24.12s-4-5.59-4-5.59,2.59.57,3.41-.12-4.6-8-9.18-12.76-13.25-12-13.25-12l.16,4a55.6,55.6,0,0,1,6.73,8.23C113.43,171.41,120.86,178.06,122.55,207.56Z" style="opacity:0.30000000000000004"></path><g id="freepik--arm--inject-60"><g id="freepik--arm--inject-60"><path d="M59,257.06c-1.38-1.22-3.1-2.23-3.81-4a3.13,3.13,0,0,1,.13-2.83,1.37,1.37,0,0,0,.28-.55,1.12,1.12,0,0,0-.08-.5,3.48,3.48,0,0,1-.09-2.09,2.18,2.18,0,0,1,1.2-1.27,5.06,5.06,0,0,1-.31-3.14c.25-1.1,1.19-2.13,2.17-1.21a39.08,39.08,0,0,1,3.16,2.88,7.25,7.25,0,0,1,1.79,3.92,11.08,11.08,0,0,1-.23,2.69,10.33,10.33,0,0,1-.51,2.13,7.59,7.59,0,0,0-.65,1.59,2.71,2.71,0,0,1-2,2.43C59.89,257.14,59.21,257.23,59,257.06Z" style="fill:#9a4a4d"></path><path d="M64.72,165c-12.5,3.33-14,9-19.95,19.45a233.69,233.69,0,0,0-12.52,24.5c-2.45,6-2.66,8.05,3.76,14.66,3.17,3.27,6.34,6,12.2,11.13,3.73,3.29,7.75,6.62,11.63,9.94a4.3,4.3,0,0,1,1.36,3.72,22.24,22.24,0,0,0-.36,2.43,20.77,20.77,0,0,0,.59,3.09,2.75,2.75,0,0,1-.94,2.83,3.06,3.06,0,0,1-1.47.34,10.9,10.9,0,0,0,3,1.25,4.39,4.39,0,0,0,3.2-.46c.9-.56,1.53-1.55,2.51-2,.53-.23,1.13-.27,1.67-.47a2.88,2.88,0,0,0,1.35-1.11c.5-.8.62-1.87,1.4-2.41.37-.26.83-.34,1.22-.56a2.85,2.85,0,0,0,1.35-2.27,7.87,7.87,0,0,0-.36-2.72,68.73,68.73,0,0,0-2.27-7,7.06,7.06,0,0,0-1.41-2.09c-.63-.74-1.25-1.5-1.93-2.19-4.6-4.72-17.05-23-17.05-23l12.35-20.12S73.46,174.39,64.72,165Z" style="fill:#b16668"></path><path d="M51.74,212c-3.19,3.89-8.72,4.78-10.78,4.88a12.34,12.34,0,0,0,12.17-2.85Z" style="fill:#9a4a4d"></path></g></g><path d="M44.23,193.41a33.85,33.85,0,0,0,5.61,3.71,26.35,26.35,0,0,0,10.06,3.12l7-11.65s7.5-18.51-1.69-25.77c-7.14,1.69-9.19,1.37-13.67,8.43-3,4.68-7.22,12.75-10.52,19.14A22.67,22.67,0,0,0,44.23,193.41Z" style="fill:#5DA5FF"></path><path d="M44.23,193.41a33.85,33.85,0,0,0,5.61,3.71,26.35,26.35,0,0,0,10.06,3.12l7-11.65s7.5-18.51-1.69-25.77c-7.14,1.69-9.19,1.37-13.67,8.43-3,4.68-7.22,12.75-10.52,19.14A22.67,22.67,0,0,0,44.23,193.41Z" style="opacity:0.30000000000000004"></path></g></g></g><g id="freepik--speech-bubbles-2--inject-60"><g id="freepik--speech-bubble--inject-60"><path id="freepik--speech-bubble--inject-60" d="M191.24,81.51l-7.94-4.76a113.52,113.52,0,0,1-16.66.63c-14.9-.4-23.08-5.89-21.54-14.85,1.79-10.51,11.68-14,29.43-13.91,10.48.07,17.89,3.18,21.21,7.69,3.71,5,3.11,13.85-5.67,18.08Z" style="fill:#5DA5FF"></path><path id="freepik--speech-bubble--inject-60" d="M191.24,81.51l-7.94-4.76a113.52,113.52,0,0,1-16.66.63c-14.9-.4-23.08-5.89-21.54-14.85,1.79-10.51,11.68-14,29.43-13.91,10.48.07,17.89,3.18,21.21,7.69,3.71,5,3.11,13.85-5.67,18.08Z" style="fill:#fff;opacity:0.6000000000000001"></path></g><g id="freepik--speech-bubble--inject-60"><path id="freepik--speech-bubble--inject-60" d="M469.09,101.88l-8.82-7.77a132,132,0,0,1-19.23.72c-17.19-.46-26.63-6.79-24.86-17.14,2.08-12.12,13.48-16.19,34-16,12.09.09,20.64,3.68,24.47,8.89,4.29,5.82,3.59,16-6.55,20.85Z" style="fill:#5DA5FF"></path><path id="freepik--speech-bubble--inject-60" d="M469.09,101.88l-8.82-7.77a132,132,0,0,1-19.23.72c-17.19-.46-26.63-6.79-24.86-17.14,2.08-12.12,13.48-16.19,34-16,12.09.09,20.64,3.68,24.47,8.89,4.29,5.82,3.59,16-6.55,20.85Z" style="fill:#fff;opacity:0.6000000000000001"></path></g><g id="freepik--speech-bubble--inject-60"><path id="freepik--speech-bubble--inject-60" d="M303.6,61.51l7.72-6.8a115.35,115.35,0,0,0,16.8.63c15-.4,23.28-5.93,21.73-15-1.81-10.6-11.78-14.15-29.69-14-10.57.08-18,3.22-21.39,7.77-3.75,5.09-3.14,14,5.72,18.23Z" style="fill:#5DA5FF"></path><path id="freepik--speech-bubble--inject-60" d="M303.6,61.51l7.72-6.8a115.35,115.35,0,0,0,16.8.63c15-.4,23.28-5.93,21.73-15-1.81-10.6-11.78-14.15-29.69-14-10.57.08-18,3.22-21.39,7.77-3.75,5.09-3.14,14,5.72,18.23Z" style="fill:#fff;opacity:0.6000000000000001"></path></g><g id="freepik--speech-bubble--inject-60"><path id="freepik--speech-bubble--inject-60" d="M27.33,99.74,35.05,93a114.65,114.65,0,0,0,16.8.62c15-.4,23.28-5.93,21.73-15C71.77,68,61.8,64.44,43.9,64.57c-10.58.07-18,3.21-21.4,7.76-3.74,5.09-3.13,14,5.73,18.23Z" style="fill:#5DA5FF"></path><path id="freepik--speech-bubble--inject-60" d="M27.33,99.74,35.05,93a114.65,114.65,0,0,0,16.8.62c15-.4,23.28-5.93,21.73-15C71.77,68,61.8,64.44,43.9,64.57c-10.58.07-18,3.21-21.4,7.76-3.74,5.09-3.13,14,5.73,18.23Z" style="fill:#fff;opacity:0.6000000000000001"></path></g></g><g id="freepik--speech-bubbles-1--inject-60"><g id="freepik--speech-bubble--inject-60"><g id="freepik--speech-bubble--inject-60"><path d="M101.58,81.46l13.89-7.83s21.74.27,31.59-6.62c9.33-6.52,13.65-23,.3-33.66-12.61-10.1-45.87-10-60.16-.25-9.9,6.75-13.54,21.36-6.31,30.36,6.08,7.57,22,8.84,22,8.84Z" style="fill:#fafafa"></path><path d="M100.94,82.39l1.36-9.64c-2.87-.3-16.21-2-21.8-9A18.87,18.87,0,0,1,76.83,49,24.25,24.25,0,0,1,86.92,32.69c14.64-10,48.14-9.84,60.75.27,5.78,4.63,8.84,10.88,8.62,17.59a21.73,21.73,0,0,1-8.95,16.87c-9.57,6.69-29.74,6.74-31.75,6.71Zm16.77-56.15c-11.45,0-23.11,2.42-30.23,7.27a23.27,23.27,0,0,0-9.66,15.58,17.92,17.92,0,0,0,3.45,14c5.89,7.32,21.48,8.65,21.64,8.66l.52,0-1.22,8.69,13.13-7.4h.13c.23,0,21.7.18,31.3-6.53a20.71,20.71,0,0,0,8.52-16.09c.15-4.52-1.16-11.1-8.24-16.77C140.81,28.74,129.37,26.24,117.71,26.24Z" style="fill:#455a64"></path></g><path d="M101.48,51.09a4.22,4.22,0,1,1-4.22-4.22A4.22,4.22,0,0,1,101.48,51.09Z" style="fill:#455a64"></path><path d="M120.67,51.09a4.23,4.23,0,1,1-4.22-4.22A4.22,4.22,0,0,1,120.67,51.09Z" style="fill:#455a64"></path><path d="M139.86,51.09a4.23,4.23,0,1,1-4.23-4.22A4.23,4.23,0,0,1,139.86,51.09Z" style="fill:#455a64"></path></g><g id="freepik--speech-bubble--inject-60"><g id="freepik--speech-bubble--inject-60"><path d="M150.55,137.89l9.89-9.3a151.38,151.38,0,0,0,22.22.11c19.83-1.17,30.49-8.82,28.06-20.7-2.85-13.92-16.16-18.19-39.8-17.26-14,.54-23.7,5-27.92,11.16-4.73,6.88-3.55,18.57,8.33,23.83Z" style="fill:#fafafa"></path><path d="M150,139.12l.84-13.08c-5.27-2.42-8.92-6.41-10.3-11.26a15.82,15.82,0,0,1,2.08-13.16c4.61-6.71,14.93-10.86,28.31-11.38,25.5-1,37.57,4.28,40.31,17.66a13.67,13.67,0,0,1-2.43,11.55c-4.32,5.62-13.34,9-26.09,9.75a158.27,158.27,0,0,1-22.07-.09Zm26.7-48q-2.74,0-5.73.12c-13.07.51-23.1,4.5-27.53,10.94a14.82,14.82,0,0,0-1.93,12.32c.93,3.3,3.43,7.84,10.06,10.77l.31.14-.72,11.25,9.14-8.59.22,0a151.89,151.89,0,0,0,22.14.11c12.45-.73,21.22-4,25.36-9.36a12.73,12.73,0,0,0,2.24-10.74C207.82,96.33,197.68,91.12,176.67,91.12Z" style="fill:#455a64"></path></g><path d="M163.91,109.92a3.34,3.34,0,1,1-3.33-3.34A3.33,3.33,0,0,1,163.91,109.92Z" style="fill:#455a64"></path><path d="M179.07,109.92a3.34,3.34,0,1,1-3.34-3.34A3.33,3.33,0,0,1,179.07,109.92Z" style="fill:#455a64"></path><path d="M194.23,109.92a3.34,3.34,0,1,1-3.34-3.34A3.34,3.34,0,0,1,194.23,109.92Z" style="fill:#455a64"></path></g><g id="freepik--speech-bubble--inject-60"><g id="freepik--speech-bubble--inject-60"><path d="M273,85.55l-.3-11s17.92-2.38,16-21c-1.19-11.61-7.46-20.59-44-19.56-40.3,1.14-35.53,25.53-31.08,32.38,6.69,10.3,21.86,11.23,50.67,9.63Z" style="fill:#fafafa"></path><path d="M273.49,86.89,264.1,76.51C235,78.12,220,77,213.22,66.64c-2.48-3.82-4.77-12.19-.89-19.59,3.07-5.85,11.18-13,32.37-13.56,35.14-1,43.18,7.28,44.48,20,1.76,17.19-13.21,20.91-16,21.45Zm-9-11.41,7.9,8.74-.27-10.12.45-.06c.71-.1,17.41-2.55,15.58-20.44-1.05-10.26-5.25-20.19-43.45-19.11-16.39.46-27.29,5-31.52,13-3.68,7-1.51,14.95.85,18.57,6.5,10,21.38,11,50.23,9.41Z" style="fill:#455a64"></path></g><path d="M234.84,56a4.23,4.23,0,1,1-4.22-4.22A4.22,4.22,0,0,1,234.84,56Z" style="fill:#455a64"></path><path d="M254,56a4.22,4.22,0,1,1-4.22-4.22A4.22,4.22,0,0,1,254,56Z" style="fill:#455a64"></path><path d="M273.21,56A4.22,4.22,0,1,1,269,51.74,4.22,4.22,0,0,1,273.21,56Z" style="fill:#455a64"></path></g><g id="freepik--speech-bubble--inject-60"><g id="freepik--speech-bubble--inject-60"><path d="M342.72,142l-12.38-10.72s-21.61,1.73-31-6.43c-8.3-7.19-7-20.88,3.09-28.43,11.66-8.74,43.58-7.5,53-.14s9.84,19.91,2,28.34c-4.49,4.83-15.33,6.1-15.33,6.1Z" style="fill:#fafafa"></path><path d="M343.29,143.12l-13.12-11.36c-2.4.17-22.11,1.3-31.19-6.57a16.32,16.32,0,0,1-5.6-13.22,21,21,0,0,1,8.72-16c11.86-8.89,43.9-7.72,53.59-.13a19.39,19.39,0,0,1,7.63,13.79,20,20,0,0,1-5.58,15.28c-4.08,4.39-13,5.89-15.18,6.2ZM330.5,130.73l11.65,10.08-.64-10.56.47-.05c.11,0,10.71-1.31,15-5.95a19.07,19.07,0,0,0,5.31-14.53,18.38,18.38,0,0,0-7.25-13.07c-9.23-7.24-41-8.35-52.37.14A20.05,20.05,0,0,0,294.37,112a15.39,15.39,0,0,0,5.27,12.43c9.15,7.93,30.44,6.33,30.66,6.31Z" style="fill:#455a64"></path></g><circle cx="312.12" cy="111.09" r="3.58" style="fill:#455a64"></circle><circle cx="328.37" cy="111.09" r="3.58" style="fill:#455a64"></circle><circle cx="344.62" cy="111.09" r="3.58" style="fill:#455a64"></circle></g><g id="freepik--speech-bubble--inject-60"><g id="freepik--speech-bubble--inject-60"><path d="M388.25,88.56l-15.7-9.86s-17.36.43-27.21-6.46c-9.34-6.52-13.66-22-.31-32.71,12.61-10.1,44.55-8.53,55.79-1.36,10.79,6.88,12.62,23.81,4,31.67-7.16,6.56-19.71,7.53-19.71,7.53Z" style="fill:#fafafa"></path><path d="M389.08,89.67,372.41,79.2c-1.85,0-17.87.09-27.36-6.55a21.22,21.22,0,0,1-8.95-16.37c-.15-4.55,1.22-11.21,8.62-17.14,13.13-10.52,45.2-8.52,56.37-1.39a21.85,21.85,0,0,1,9.59,16.6c.56,6.37-1.44,12.15-5.48,15.86-6.4,5.85-16.78,7.32-19.41,7.6ZM372.69,78.19l14.74,9.26-2.92-10.53.61,0c.12,0,12.45-1,19.4-7.4,3.81-3.49,5.69-9,5.16-15a20.81,20.81,0,0,0-9.13-15.85c-10.69-6.82-42.61-8.76-55.21,1.33-7.07,5.67-8.38,12-8.24,16.32a20.2,20.2,0,0,0,8.52,15.59c9.61,6.72,26.75,6.38,26.92,6.37Z" style="fill:#455a64"></path></g><path d="M358.48,55.51a4.23,4.23,0,1,1-4.22-4.23A4.22,4.22,0,0,1,358.48,55.51Z" style="fill:#455a64"></path><path d="M377.67,55.51a4.23,4.23,0,1,1-4.23-4.23A4.22,4.22,0,0,1,377.67,55.51Z" style="fill:#455a64"></path><path d="M396.85,55.51a4.22,4.22,0,1,1-4.22-4.23A4.22,4.22,0,0,1,396.85,55.51Z" style="fill:#455a64"></path></g></g></svg>